<?xml version="1.0" encoding="utf-8"?>
<!-- Generator: Adobe Illustrator 26.1.0, SVG Export Plug-In . SVG Version: 6.00 Build 0)  -->
<svg version="1.1"
	 id="svg3858" xmlns:cc="http://creativecommons.org/ns#" xmlns:dc="http://purl.org/dc/elements/1.1/" xmlns:rdf="http://www.w3.org/1999/02/22-rdf-syntax-ns#" xmlns:svg="http://www.w3.org/2000/svg"
	 xmlns="http://www.w3.org/2000/svg" xmlns:xlink="http://www.w3.org/1999/xlink" x="0px" y="0px" viewBox="0 0 1000 1047.1"
	 style="enable-background:new 0 0 1000 1047.1;" xml:space="preserve">
<style type="text/css">
	.st0{fill:#FFFFFF;}
</style>
<g id="layer1" transform="translate(-23.868215,305.62409)">
	<g id="g3928" transform="matrix(15.504137,0,0,15.504137,-5866.0511,-7379.7381)">
		<path id="path3307" d="M440.5,488.7l-14.1-26.2c-1.5-2.8-4.9-3.8-7.6-2.3L393,474.6c-1.2,0.7-2.2,1.8-2.7,3.5l-6.9,24
			c-0.8,2.9,0.8,5.9,3.6,6.7l40.6,11.6c2.8,0.8,5.8-0.8,6.6-3.7l6.7-23.6C441.4,491.7,441.1,490,440.5,488.7z"/>
		<path id="path3309" class="st0" d="M408.9,493.7c0,0-4.5-8.7-7.4-8.7c-2.2,0-2.4,2.4-2.4,8.1c0,5.7,0.3,7.9,2.4,7.9
			C404.4,501,408.9,493.7,408.9,493.7z M414.6,486.5c2.3-3.3,4.4-6.6,8.2-6.6c4.3,0,6.6,3.6,6.6,6.6c0,0,0,19.3,0,19.3h-4.8l0-18.3
			c0-2.5-2-2.5-2-2.5c-1.6,0-4.6,4.1-8,8.6v12.2l-4.9,0l0-5.6c0,0-3.2,5.6-8,5.7c-5.5,0-7.3-3.8-7.3-12.8c0-8.6,1.2-13.2,7.1-13.2
			c4.5,0,8.3,6.5,8.3,6.5l0-4.1l4.9-6.6C414.6,475.7,414.6,486.5,414.6,486.5L414.6,486.5z"/>
	</g>
</g>
</svg>
